Coordinates
version=1
nRows=8
nColumns=63
inDegrees=yes

Units are S.I. units (second, meters, Newtons, ...)
If the header above contains a line with 'inDegrees', this indicates whether rotational values are in degrees (yes) or radians (no).

endheader
time	pelvis_tilt	pelvis_list	pelvis_rotation	pelvis_tx	pelvis_ty	pelvis_tz	hip_flexion_r	hip_adduction_r	hip_rotation_r	knee_angle_r	knee_angle_r_beta	ankle_angle_r	subtalar_angle_r	mtp_angle_r	hip_flexion_l	hip_adduction_l	hip_rotation_l	knee_angle_l	knee_angle_l_beta	ankle_angle_l	subtalar_angle_l	mtp_angle_l	L5_S1_Flex_Ext	L5_S1_Lat_Bending	L5_S1_axial_rotation	L4_L5_Flex_Ext	L4_L5_Lat_Bending	L4_L5_axial_rotation	L3_L4_Flex_Ext	L3_L4_Lat_Bending	L3_L4_axial_rotation	L2_L3_Flex_Ext	L2_L3_Lat_Bending	L2_L3_axial_rotation	L1_L2_Flex_Ext	L1_L2_Lat_Bending	L1_L2_axial_rotation	L1_T12_Flex_Ext	L1_T12_Lat_Bending	L1_T12_axial_rotation	Abs_r3	Abs_r2	Abs_r1	Abs_t1	Abs_t2	neck_flexion	neck_bending	neck_rotation	arm_flex_r	arm_add_r	arm_rot_r	elbow_flex_r	pro_sup_r	wrist_flex_r	wrist_dev_r	arm_flex_l	arm_add_l	arm_rot_l	elbow_flex_l	pro_sup_l	wrist_flex_l	wrist_dev_l
3.000000	-2.706342	-6.502390	98.704879	0.182758	0.779564	0.731245	3.517840	-3.896883	-17.013185	12.877866	0.224761	32.885738	6.733777	0.000000	2.243536	4.217744	22.780283	1.415188	0.024700	27.059553	-16.833873	0.000000	0.175390	-0.271529	-0.258707	0.325716	-0.361133	-0.274876	0.288148	-0.660195	-0.274876	0.200453	-0.660195	-0.226369	0.162867	-0.553702	-0.210199	0.100218	-0.420598	-0.194030	1.252792	-3.071590	-1.438850	0.000000	0.000000	25.622390	-3.693254	-7.365670	5.874718	-20.554095	22.046548	26.259930	78.386632	-1.122636	4.188203	14.928674	-17.045873	149.866270	3.644420	11.396245	-6.435379	-6.838981
3.016667	-2.550014	-6.714351	98.879931	0.182577	0.779194	0.732830	3.905792	-3.833907	-17.306748	13.055235	0.227857	32.836362	6.754047	0.000000	2.738012	4.161646	22.654178	1.776018	0.030997	27.056634	-16.733395	0.000000	0.199932	-0.257195	-0.270053	0.371293	-0.342069	-0.286931	0.328468	-0.625343	-0.286931	0.228502	-0.625343	-0.236296	0.185657	-0.524471	-0.219418	0.114241	-0.398394	-0.202540	1.428093	-2.909437	-1.501953	0.000000	0.000000	26.037113	-3.813402	-7.434649	6.017786	-20.488321	21.346501	26.594787	79.011903	-0.871085	4.250685	15.380237	-16.557902	151.645027	3.112935	11.511511	-6.979980	-6.861376
3.033333	-2.381665	-6.927905	99.012007	0.182477	0.778770	0.734328	4.322139	-3.752158	-17.485314	13.249302	0.231244	32.825455	6.739176	0.000000	3.253235	4.100909	22.394048	2.185730	0.038148	27.127048	-16.540275	0.000000	0.225406	-0.241176	-0.273550	0.418602	-0.320764	-0.290647	0.370320	-0.586395	-0.290647	0.257617	-0.586395	-0.239356	0.209312	-0.491805	-0.222260	0.128797	-0.373581	-0.205163	1.610053	-2.728227	-1.521404	0.000000	0.000000	26.456997	-3.923222	-7.461542	6.189157	-20.346990	20.564328	26.893071	79.598185	-0.679321	4.477983	15.787350	-16.048680	152.829320	2.619174	11.564688	-7.638092	-7.160160
3.050000	-2.214778	-7.141641	99.116738	0.182434	0.778286	0.735642	4.737787	-3.654416	-17.510156	13.421259	0.234245	32.847990	6.613382	0.000000	3.774511	4.048903	22.118237	2.631035	0.045920	27.261057	-16.372356	0.000000	0.252547	-0.225459	-0.266979	0.469005	-0.299861	-0.283666	0.414909	-0.548182	-0.283666	0.288636	-0.548182	-0.233607	0.234515	-0.459757	-0.216921	0.144305	-0.349237	-0.200235	1.803916	-2.550441	-1.484860	0.000000	0.000000	26.873712	-4.012856	-7.451107	6.366029	-20.151604	19.817416	27.191047	79.897418	-0.599748	4.923830	16.179100	-15.504646	154.119460	2.142591	11.286270	-8.411528	-7.626641
3.066667	-2.048427	-7.337583	99.218952	0.182408	0.777769	0.736725	5.117426	-3.544141	-17.490298	13.564297	0.236742	32.915526	6.495275	0.000000	4.282766	4.000745	21.817815	3.117054	0.054403	27.494804	-16.151933	0.000000	0.278961	-0.209938	-0.256707	0.518058	-0.279218	-0.272751	0.458305	-0.510444	-0.272751	0.318824	-0.510444	-0.224619	0.259043	-0.428106	-0.208575	0.159398	-0.325194	-0.192530	1.992588	-2.374864	-1.427728	0.000000	0.000000	27.257084	-4.072777	-7.417031	6.550011	-19.881916	18.982972	27.481615	80.186049	-0.611229	5.617512	16.567701	-14.945741	155.348246	1.731915	10.911095	-9.167854	-8.202150
3.083333	-1.887053	-7.509222	99.313287	0.182399	0.777258	0.737565	5.447231	-3.430135	-17.503916	13.675521	0.238683	33.009784	6.477881	0.000000	4.770606	3.958361	21.462914	3.642076	0.063566	27.814198	-15.850466	0.000000	0.303838	-0.194948	-0.243778	0.564257	-0.259281	-0.259014	0.499175	-0.473996	-0.259014	0.347256	-0.473996	-0.213306	0.282144	-0.397537	-0.198070	0.173613	-0.301974	-0.182834	2.170281	-2.205288	-1.355822	0.000000	0.000000	27.578061	-4.088736	-7.338326	6.802949	-19.576564	18.474386	27.707978	80.117762	-0.793310	6.476449	16.959860	-14.376954	156.526831	1.393747	10.460938	-9.817875	-8.840413
3.100000	-1.722069	-7.640286	99.466693	0.182318	0.776789	0.738123	5.677716	-3.292653	-17.576422	13.718709	0.239437	33.118184	6.505961	0.000000	5.208629	3.909891	21.234965	4.180781	0.072968	28.175793	-15.614310	0.000000	0.324945	-0.179444	-0.238210	0.603455	-0.238660	-0.253098	0.533852	-0.436299	-0.253098	0.371379	-0.436299	-0.208434	0.301744	-0.365921	-0.193546	0.185673	-0.277958	-0.178657	2.321048	-2.029901	-1.324852	0.000000	0.000000	27.818370	-4.081379	-7.259061	7.044846	-19.211878	17.806383	27.926046	80.272241	-1.021159	7.600585	17.395742	-13.792066	157.837370	1.129261	9.980924	-10.211673	-9.485999
3.116667	-1.569510	-7.733448	99.652143	0.182207	0.776402	0.738448	5.815108	-3.152616	-17.725780	13.694201	0.239009	33.246152	6.654005	0.000000	5.611024	3.870837	20.995177	4.744815	0.082813	28.606569	-15.288373	0.000000	0.342809	-0.164717	-0.244050	0.636631	-0.219073	-0.259303	0.563201	-0.400492	-0.259303	0.391797	-0.400492	-0.213543	0.318333	-0.335890	-0.198290	0.195881	-0.255146	-0.183037	2.448651	-1.863307	-1.357330	0.000000	0.000000	27.966200	-4.024213	-7.096623	7.418715	-18.832076	17.799569	28.013312	79.860122	-1.326047	8.805802	17.861733	-13.206790	159.083409	0.938780	9.521199	-10.362420	-10.136660
